#!OML:ASF X:\für Bonn\!DataBase\2005_08_11_Bastian_Final\c3d\Bastian.ASF
:FULLY-SPECIFIED
:DEGREES
139
root -22.0177 17.6613 0.671796 127.188 -77.3021 -132.088
lowerback 6.95732 6.50169 6.28547
upperback 3.94565 8.86319 -3.22467
thorax 1.73299 4.58635 -7.22875
lowerneck -9.41103 -11.1171 -3.75923
upperneck -17.5238 -13.9462 17.084
head -2.1157 -7.67756 5.54273
rclavicle 7.23576e-014 -5.40694e-014
rhumerus 56.2778 -2.11908 -18.1778
rradius 24.469
rwrist -26.0466
rhand -0.368462 -10.8018
rfingers 7.12502
rthumb 25.2374 -39.1528
lclavicle 7.23576e-014 -5.40694e-014
lhumerus -14.063 -19.2171 85.804
lradius 8.52461
lwrist 11.8416
lhand -10.4883 -3.00533
lfingers 7.12502
lthumb 15.5134 26.3923
rfemur 1.16218 -7.77284 28.0442
rtibia 30.5318
rfoot -13.3046 -16.3278
rtoes -20.6879
lfemur -7.16493 -2.72769 -11.5003
ltibia 27.7296
lfoot -5.57927 -14.6943
ltoes -8.70514
140
root -22.0309 17.6624 0.678064 127.564 -77.2332 -132.415
lowerback 6.85395 6.47158 6.28211
upperback 3.97351 8.8176 -3.22283
thorax 1.81046 4.56697 -7.20903
lowerneck -9.51744 -11.128 -3.70846
upperneck -17.3898 -13.9735 17.1401
head -2.05503 -7.68732 5.53633
rclavicle -1.20066e-013 2.22639e-014
rhumerus 56.3233 -2.23867 -18.3915
rradius 24.9983
rwrist -25.7551
rhand -1.10574 -10.8553
rfingers 7.12502
rthumb 24.5309 -39.304
lclavicle -1.20066e-013 2.22639e-014
lhumerus -14.3622 -19.2135 85.8315
lradius 8.00406
lwrist 11.8739
lhand -10.6772 -2.95766
lfingers 7.12502
lthumb 15.3314 26.454
rfemur 1.19671 -7.70303 28.0171
rtibia 30.4836
rfoot -13.3569 -16.2799
rtoes -20.4518
lfemur -7.14178 -2.63157 -11.5212
ltibia 27.7056
lfoot -5.64279 -14.6695
ltoes -8.87872
141
root -22.0426 17.6627 0.683974 128.026 -77.1689 -132.852
lowerback 6.80037 6.42783 6.2493
upperback 3.98907 8.75439 -3.22284
thorax 1.84003 4.53575 -7.18282
lowerneck -9.61509 -11.1298 -3.7052
upperneck -17.215 -13.9851 17.2351
head -1.97747 -7.68586 5.54734
rclavicle 7.03698e-014 -2.70347e-014
rhumerus 56.4 -2.36581 -18.6925
rradius 25.6052
rwrist -25.3711
rhand -1.93713 -10.9195
rfingers 7.12502
rthumb 23.7337 -39.474
lclavicle 7.03698e-014 -2.70347e-014
lhumerus -14.8063 -19.1636 85.8368
lradius 7.72319
lwrist 11.9188
lhand -10.8097 -2.93709
lfingers 7.12502
lthumb 15.2039 26.4843
rfemur 1.25508 -7.58494 27.977
rtibia 30.4318
rfoot -13.4232 -16.2369
rtoes -20.0444
lfemur -7.09654 -2.5238 -11.5589
ltibia 27.6808
lfoot -5.67035 -14.6466
ltoes -8.75594
142
root -22.0531 17.6629 0.689986 128.589 -77.1059 -133.388
lowerback 6.7544 6.39252 6.19188
upperback 4.01255 8.70076 -3.22476
thorax 1.87188 4.50882 -7.14561
lowerneck -9.82594 -11.1368 -3.62951
upperneck -16.9531 -14.021 17.2592
head -1.8666 -7.68941 5.51453
rclavicle 2.94201e-014 3.18055e-014
rhumerus 56.4559 -2.55179 -19.049
rradius 26.2891
rwrist -24.8139
rhand -2.87904 -10.946
rfingers 7.12502
rthumb 22.8301 -39.6148
lclavicle 2.94201e-014 3.18055e-014
lhumerus -15.2622 -19.1104 85.8464
lradius 7.5672
lwrist 12.0094
lhand -10.9796 -2.96221
lfingers 7.12502
lthumb 15.0402 26.4715
rfemur 1.30867 -7.43117 27.9258
rtibia 30.3739
rfoot -13.4917 -16.2222
rtoes -19.7238
lfemur -7.05796 -2.35335 -11.6135
ltibia 27.652
lfoot -5.71228 -14.6645
ltoes -8.85988
143
root -22.0627 17.663 0.696672 129.054 -77.0393 -133.825
lowerback 6.73652 6.34817 6.15556
upperback 4.02572 8.63812 -3.21371
thorax 1.8771 4.47648 -7.11083
lowerneck -10.0009 -11.139 -3.56483
upperneck -16.7383 -14.0467 17.2822
head -1.77568 -7.69062 5.48844
rclavicle -7.99114e-014 0
rhumerus 56.4896 -2.74704 -19.454
rradius 27.0806
rwrist -24.1568
rhand -3.90809 -10.998
rfingers 7.12502
rthumb 21.8422 -39.7853
lclavicle -7.99114e-014 0
lhumerus -15.8109 -19.0471 85.8805
lradius 7.5565
lwrist 12.104
lhand -11.1305 -2.9967
lfingers 7.12502
lthumb 14.8948 26.4478
rfemur 1.35789 -7.31686 27.8834
rtibia 30.3153
rfoot -13.553 -16.1767
rtoes -19.3474
lfemur -7.02336 -2.2127 -11.6492
ltibia 27.6197
lfoot -5.74871 -14.6655
ltoes -8.93569
144
root -22.0717 17.6639 0.703048 129.646 -76.9719 -134.398
lowerback 6.73544 6.30995 6.10204
upperback 4.04256 8.58277 -3.21893
thorax 1.8783 4.44742 -7.08554
lowerneck -10.2028 -11.1334 -3.3784
upperneck -16.521 -14.0782 17.2201
head -1.69722 -7.69749 5.41822
rclavicle 1.60618e-013 -4.13472e-014
rhumerus 57.1227 -3.52732 -21.4378
rradius 26.9471
rwrist -21.8372
rhand -4.69023 -10.4975
rfingers 7.12502
rthumb 21.091 -39.3704
lclavicle 1.60618e-013 -4.13472e-014
lhumerus -16.3455 -18.9862 85.8919
lradius 7.5669
lwrist 12.2139
lhand -11.2978 -3.09682
lfingers 7.12502
lthumb 14.7336 26.3596
rfemur 1.404 -7.21396 27.8114
rtibia 30.2559
rfoot -13.6082 -16.1156
rtoes -19.0257
lfemur -6.97743 -2.05595 -11.7122
ltibia 27.5851
lfoot -5.80564 -14.6602
ltoes -9.09708
145
root -22.0803 17.6641 0.70985 130.134 -76.867 -134.864
lowerback 6.73601 6.26569 6.08323
upperback 4.05644 8.52185 -3.20641
thorax 1.87714 4.41608 -7.06109
lowerneck -10.3995 -11.1163 -3.14834
upperneck -16.3032 -14.1007 17.118
head -1.6276 -7.70095 5.33122
rclavicle -4.96962e-014 7.95139e-015
rhumerus 57.7468 -4.21262 -23.2452
rradius 26.975
rwrist -19.7006
rhand -5.59515 -10.0462
rfingers 7.12502
rthumb 20.2215 -39.0136
lclavicle -4.96962e-014 7.95139e-015
lhumerus -16.902 -18.9091 85.8782
lradius 7.63822
lwrist 12.3332
lhand -11.4503 -3.25682
lfingers 7.12502
lthumb 14.5866 26.2103
rfemur 1.43581 -7.11487 27.787
rtibia 30.1951
rfoot -13.6156 -16.0701
rtoes -18.9224
lfemur -6.93084 -1.91541 -11.7254
ltibia 27.5546
lfoot -5.84392 -14.6413
ltoes -9.14938
146
root -22.0888 17.6641 0.717282 130.772 -76.7753 -135.501
lowerback 6.75774 6.2234 6.0264
upperback 4.08289 8.46135 -3.19413
thorax 1.87177 4.3838 -7.01779
lowerneck -10.6567 -11.0973 -2.88253
upperneck -16.0483 -14.132 16.942
head -1.54676 -7.70404 5.2122
rclavicle 8.34896e-015 -2.70347e-014
rhumerus 58.3131 -4.79548 -24.7851
rradius 27.181
rwrist -17.8411
rhand -6.60469 -9.6471
rfingers 7.12502
rthumb 19.251 -38.7143
lclavicle 8.34896e-015 -2.70347e-014
lhumerus -17.3973 -18.809 85.863
lradius 7.62467
lwrist 12.4387
lhand -11.6158 -3.48084
lfingers 7.12502
lthumb 14.4272 25.9977
rfemur 1.48276 -7.03119 27.7049
rtibia 30.1442
rfoot -13.6353 -15.9645
rtoes -18.6878
lfemur -6.86467 -1.75967 -11.7849
ltibia 27.5251
lfoot -5.91318 -14.6284
ltoes -9.31874
147
root -22.0961 17.6646 0.725497 131.408 -76.6595 -136.123
lowerback 6.78292 6.18092 5.98496
upperback 4.10012 8.40212 -3.1736
thorax 1.85619 4.35194 -6.97532
lowerneck -10.8788 -11.0648 -2.60523
upperneck -15.8236 -14.1447 16.7582
head -1.48371 -7.70116 5.09444
rclavicle -9.93923e-015 4.29375e-014
rhumerus 58.8289 -5.28615 -26.1559
rradius 27.5561
rwrist -16.1702
rhand -7.68278 -9.23255
rfingers 7.12502
rthumb 18.214 -38.3998
lclavicle -9.93923e-015 4.29375e-014
lhumerus -17.9349 -18.6974 85.8396
lradius 7.68593
lwrist 12.5017
lhand -11.7528 -3.67324
lfingers 7.12502
lthumb 14.2952 25.8147
rfemur 1.50549 -6.93191 27.6444
rtibia 30.1031
rfoot -13.6669 -15.876
rtoes -18.4762
lfemur -6.81541 -1.62887 -11.8333
ltibia 27.498
lfoot -5.97246 -14.5613
ltoes -9.47163
148
root -22.1025 17.6639 0.733395 132.155 -76.5342 -136.847
lowerback 6.80491 6.14534 5.93335
upperback 4.1102 8.35142 -3.17167
thorax 1.83785 4.32418 -6.94682
lowerneck -11.0634 -11.0269 -2.27955
upperneck -15.6193 -14.1539 16.5779
head -1.43612 -7.70174 4.97454
rclavicle 1.11319e-013 -2.70347e-014
rhumerus 59.2318 -5.69749 -27.328
rradius 28.1608
rwrist -14.776
rhand -8.78933 -8.86307
rfingers 7.12502
rthumb 17.1492 -38.1263
lclavicle 1.11319e-013 -2.70347e-014
lhumerus -18.5101 -18.6042 85.7445
lradius 7.85544
lwrist 12.554
lhand -11.8254 -3.86875
lfingers 7.12502
lthumb 14.2252 25.6241
rfemur 1.50012 -6.88083 27.5589
rtibia 30.0758
rfoot -13.665 -15.7267
rtoes -18.3963
lfemur -6.77828 -1.46859 -11.8877
ltibia 27.4738
lfoot -6.05272 -14.497
ltoes -9.58984
149
root -22.1079 17.6635 0.742018 132.94 -76.4027 -137.619
lowerback 6.8428 6.10811 5.87333
upperback 4.13216 8.29803 -3.15801
thorax 1.81972 4.29472 -6.90249
lowerneck -11.2514 -10.9805 -1.97031
upperneck -15.4211 -14.1516 16.3734
head -1.39177 -7.69518 4.85125
rclavicle 4.17448e-014 2.22639e-014
rhumerus 59.5609 -6.02204 -28.246
rradius 28.9844
rwrist -13.5941
rhand -9.94204 -8.45259
rfingers 7.12502
rthumb 16.0395 -37.8087
lclavicle 4.17448e-014 2.22639e-014
lhumerus -19.0874 -18.4757 85.6881
lradius 8.06056
lwrist 12.5289
lhand -11.8747 -3.98116
lfingers 7.12502
lthumb 14.1777 25.515
rfemur 1.49911 -6.78578 27.4684
rtibia 30.0496
rfoot -13.6657 -15.5998
rtoes -18.2605
lfemur -6.73906 -1.2726 -11.949
ltibia 27.459
lfoot -6.10948 -14.4643
ltoes -9.64428
150
root -22.1124 17.6627 0.750259 133.677 -76.2395 -138.346
lowerback 6.89178 6.06184 5.82313
upperback 4.14685 8.23401 -3.13104
thorax 1.78555 4.25926 -6.85132
lowerneck -11.3688 -10.9153 -1.67246
upperneck -15.2565 -14.1187 16.1845
head -1.36813 -7.67748 4.74183
rclavicle 5.28767e-014 -1.59028e-014
rhumerus 59.8512 -6.26963 -29.0356
rradius 29.9507
rwrist -12.5258
rhand -11.0654 -7.97782
rfingers 7.12502
rthumb 14.9575 -37.4177
lclavicle 5.28767e-014 -1.59028e-014
lhumerus -19.6812 -18.3154 85.5966
lradius 8.29717
lwrist 12.5159
lhand -11.8652 -4.08976
lfingers 7.12502
lthumb 14.1869 25.4058
rfemur 1.49047 -6.71283 27.4094
rtibia 30.0349
rfoot -13.6441 -15.4764
rtoes -18.2886
lfemur -6.69208 -1.09655 -11.9814
ltibia 27.4418
lfoot -6.18324 -14.4055
ltoes -9.83592
151
root -22.1169 17.6625 0.758532 134.439 -76.0625 -139.1
lowerback 6.94391 6.01909 5.78186
upperback 4.16261 8.17506 -3.11369
thorax 1.7547 4.22687 -6.81535
lowerneck -11.5009 -10.8582 -1.35339
upperneck -15.0746 -14.1023 15.9735
head -1.33922 -7.66693 4.62063
rclavicle 6.2816e-014 -1.74931e-014
rhumerus 60.0793 -6.47338 -29.7248
rradius 31.0439
rwrist -11.4925
rhand -12.1671 -7.38252
rfingers 7.12502
rthumb 13.8959 -36.8982
lclavicle 6.2816e-014 -1.74931e-014
lhumerus -20.2586 -18.1557 85.5016
lradius 8.52359
lwrist 12.4645
lhand -11.786 -4.18113
lfingers 7.12502
lthumb 14.2632 25.3091
rfemur 1.48291 -6.63532 27.3431
rtibia 30.0213
rfoot -13.6478 -15.314
rtoes -18.1245
lfemur -6.64044 -0.898392 -12.0083
ltibia 27.4271
lfoot -6.24943 -14.342
ltoes -9.96099
